<svg id="Great_Britain" data-name="Great Britain" xmlns="http://www.w3.org/2000/svg" viewBox="0 0 224.79 389.01"><defs><style>.cls-1{fill:#878787;}</style></defs><title>uk-outline</title><path class="cls-1" d="M231.54,407.8l0,0-.08.11,0,.12-.05.07v.14l.05.19,0,.15-.06.18.08,0,.18-.18.19-.28,0-.37Zm-64-9.37.34-.37v-.16l-.09-.08h-.07l-.31.18-.19,0-.26.16-.14.32.17.14.31-.08Zm70.59,15.89-.09-.12,0-.28-.88-.45-.29-.27-.28,0-.12,0-.12.13-.22-.13-.41-.11-.15-.15-.21.19-.18.12-.2.07h-.25l-.36-.19-.27-.08-.22.08,0,.35.17.57.13.64-.14.62h.19l.39-.17.06,0,.19.08.24.26.15.05.16-.35.14-.27.16-.17h.13l.17.08.16.11.44.45.32.14h.58l.18.08.16.12H238l0-.29v-.32l0-.24.07-.19.17-.14-.07-.08ZM228.26,406l-.41.3-.39.17-.84.81-.25.05h-.23l-.12.13.09.41-.21,0-.15.15-.05.15.08.08h1.82l.15,0,.12.06H228l.19-.11.15-.16,0-.08v-.11l.11-.45.09-.63.31-.52.08-.26-.32-.25Zm1.58.81,0,.2,0,.25,0,.12L230,407l-.05-.28ZM118.53,265l-.07.05-.1.06v.24l.45.15.39-.27.37-.37.4-.19.29.11.35.47.28.1.24-.09.23-.14.2,0,.16.41.25-.87.15-.22.22-.12.29-.07.27-.13.12-.25.27-.34,1-.7,0-.39.54-.52.65-.35.41-.47-.15-.88.51-.3.12-.12.11-.24.1-.29.12-.26.14-.11.26-.57.11-.09.18-.12,0-.28-.12-.29-.1-.18-.14-.1-.34,0-.15-.09-.1-.22-.13-.53-.1-.24,0-.44.39-1.22.11-.46-.31-.17L126,254l-.36.19-.7.17-1,.61-.67.63-.45.88-.83,2-.26.36-.58.51-.4.51-.45.32-.42.1,0,.13,0,.22-.06.31-.17.47-.08.42v1l-.17.57-.64.9,0,.62-.13,0Zm-.9.64,0,.16.13.23.14,0,.08.1.08-.19.13-.37-.17-.06ZM17.54,148.35v.05h0l0,0h0l0,0Zm76.74,7.11-.06.14,0,.11,0,.25.33.2.3-.11.3-.23.31-.12.32-.26-.11-.58-.26-.58-.15-.25V153l.27-1.21.31-1,.08-.53-.09-.2-.11-.14-.15-.1-.16,0,.26.48v.26l-.38-.24-.19,0-.21.22.15.37.11.18.12.17v.24l-.54.07-.3.27-.14.59L94,154.58l0,.58Zm-1.77-8.81-.2-.34-.36-.47-.84-.73L91,145l-.46-.8-.18-.24-.44-.37-.17-.22-.16-.38-.07.14-.06,0-.14.06-.24-.11-.14.24-.11.43-.17.42-.12.14-.76.49-.13,0,0,.12,0,.42.09.23.16.2.1.29-.08.48.13.14.19.1.21,0,.23,0-.23.72-.26.35-.07.35.31.74.66.78.26.44v.48l.08.13.1.23.09.12v.24l-1.44-1.92-.25-.13-.22.69-.41.52-.19-.05.43-1-.32,0-.26.14-.25,0-.27-.3-.21-.33-.21-.18-.88-.49-.13-.11-.18-.22,0-.22,0-.32-.07-.29-.42-.28-.21-.32-.27-.27H83.4v.26l.22.3,0,.51-.2.52-.25.35.47.12.58.38.48.56.18.64-.56-.26-.33,0-.15.17,0,.12-.17.07,0,.16,0,.13.17.25,0,.12,0,.08.32.4-.08.06-.08.11-.08.07v.21l.11.44-.25-.05-.35-.27-.17-.23-.12-.32-1-1.48-.17-.11-.2.1-.26.38-.13.44,0,.42.17.38.26.3H80.69l.2.79.79.6.17.9.15.51.35.42.45.3,1.73.6.31-.27,0-.4-.21-.63,0-.4.18-.28.22-.09.22-.15.16-.46.17.27.07.31,0,.33-.09.31.24-.17.38-.48.28-.07-.09.39,0,.28.13.19.17.1,0,.13-.06.05-.13.05.37.21.14,0v.26l-.27.22H87l.41-.17.21,0,.22,0,.12.1.25.31,1.18,1,.25.46-.51-.12-.39-.36-.34-.41-.33-.3-.43-.08-.37.17-.87.62.06.25.07.12.08.08.1.15,0,.15.1.33.05.12.89,1.19.32.1.86-.08-.11.28-.15.19-.18.12-.2.1.28.64L89,161l.3-.24.32-.17.33-.08h.35v.22l-.57.76-.21.19v.26l2.66-.7.33-.23-.27-.28v-.22l.18,0,.17.08.16.15.13.22.16-.17.1-.07.11,0,.15.19,0,.52.08.71.11.62.24.27.28-.16.17-.34.16-.39.23-.28-.13-.26.19-.2.13-.24.2-.51-.23-.55-.08-.27-.08-.37.22.12.25.31.44.76,0,.19v.25l0,.2.1.09,1.61,0,.53-.16.52-.29v.24l-1.82.93-.21.2-.17.23-.34.67-.13.16-.06.16-.08.32,0,.1-.12.07v.24l.06.31-.51.75-.06.6.18.45.26.12,1-.2.35-.24.3-.31,1.12-1.57.14-.26.18-.18.4-.22.4-.33.19-.47,0-.77.13-.23.75-.08.28-.15.69-.58.38-.53.15-.28.07-.34-.08-.38v-.22l.31-.87h-1.4l-.32-.44h-.55l-.53.2-.54.54-.78,0-.11.14-.11.22-.17.17-.27,0-.12-.2-.13-.32-.18-.32-.28-.14-.48.05-.25,0-.18-.14-.42-.43-.38,0-.42.21-.51.06v-.24l.47-.23.23-.32-.08-.28-.44-.13-1.62.22.26-.24.64-.38.14-.31-.13-.26-.28-.26-.27-.36-.1-.57.12-.22.2-.29.1-.33-.16-.36-.29-.09-.32.11-.32.24-.23.22.17-.32.5-.49.1-.27,0-.47.17-.8,0-.52,0-.49-.18-1-.18-2.45Zm3.59,2.81v-.57l.24-1.35-.13-.17-.13,0-.13.15-.13.21,0,.13v0l.08.1-.22.44,0,.47.12.37ZM98.74,92l.22-.14-.07,0v-.33l-.1,0h-.09v.21l-.14.1-.07.09,0,.11,0,.11,0,0Zm-3,64.24-.45.28.12.48.43.46.49.21.63-.26-.07-.53-.5-.51ZM194,35.74l-.06,0-.1.12-.13.1h-.17l0-.16,0-.26,0-.26-.2-.11h-2.21v.29l.64,1.32.41.62.51.13-.06-.14,0-.12-.06-.12-.11-.12v-.28l.54,0,.55.3.52.16.47-.44.11-.43-.07-.33-.2-.22ZM94.37,180.07l0-.16-.89-.29-.26-.18-.61.08-.74.23-.56.43,0,.67-.14.14H91l-.16-.13-.17-.27-.3.28-.31.15-.69.06.11.41.39.44.15.32-.9.68.26.26.32.25.36.16,1.77.31.39.23.23.25.17.32.31.7.17.17.17-.06.16-.15.15-.09.4-.06,1.21-.64.18.21.08.28,0,.33-.1.35-.23.18-1.13.54-.67-.07-.18.07-.16.21-.09.24,0,.25-.28.7-.14.16-.25.07-.21.1-.18.25-.09.34.09.36.37.33.47,0,.92-.24,1.1-.62.38-.1.12.17-.36.38-.85.62-1.31.27-.32.31-.3.15-.85-.19-.34.15.1.07.07.07.08.06.15,0v.23l-.35.24-.26-.3-.25-.49L90,190l-.37-.06-.48.09-.4.28-.18.48.12.63.27.52.34.38.52.31.4.13.23,0,.2-.11.11-.23.09-.24.11-.11h1.75l.21-.1.44-.32.2-.07.21.09.24.16.23.06.22-.18.32-.36,1.51-.78.63-.15.18-.11.13-.23.11-.24.09-.11.47-.17.23,0,.15.19,0,.31-.17.29-.21.22-.12.11.6.4.74-.18,1.68-1.15.33-.4.13-.37-.31-.16-.72.1-.34.15-.3.23V189l.62-.55.23-.4-.06-.45h.27l.12.07.12.14,0,.37.27.14.62,0,.24-.21-.14-.48-.27-.47-.17-.23.35.05.15.06.16.12.09-.68-.19-.13-.28.07-.14-.08-.09-.41-.21-.4-.26-.31-.21-.18h-.13l-.35.06-.18,0-.16-.15-.42-.66-.13-.1-.19,0-.19,0-.29.2-.14-.13-.13-.21-.16-.11H96.41l-.2-.07,0-.17v-.23l-.06-.24-.77-1.85-.46-.69-.59,0,0-.15Zm-9.23-14.2.61-.11.5-.27-.22-.18-.47-.12-.21-.2-.36.1-.65.38-.29.25.48.12Zm-2.38,15.81-.52.1.11.33.18.42.16.19.08-.36.09-.31h.22l.46.2.32-.11,1-.81.7-1,.24,0,.18-.09.15-.15.14-.2.13-.27.27-.69.17-.34.13-.35-.18-.1-.52.09-.31.11-.56.5-.44.19-.61.46-.22.28-.85,1.4ZM93,214l.5-.28.43-.4.34-.52.12.25.09-.27.15-.19.19-.15.23-.11v-.21l-.11-.27-.06-.34v-.38l.05-.38-.31-.15-.12-.13-.1-.18,0-.2.08-.31,0-.28-.09-.12-.18-.11L94,209l-.27-.34-.11-.31-.06-1-.26-1.87-.08-1.44-.06-.2-.13-.13-.19-.07-.17.21-.25.23-.27.18-.28.07-.23.15-.48.65-.67.39-.61.62-.4.74.14.66v.23l-.24-.07-.14-.24-.14-.6v-.21l.23-.95.15-.22-.25-.11-.21.17-.23.25-1,.47-.68.49L87,207l0,.42,0,.53-.08.32-.15.2-.25.22.63.46-.84,1.26L86,211l.1.06.08.13.09,0-.24.6,0,.54.23.33.53-.09.24-.27.6-.91.61-.42.26-.55.45-1.16.38-.33.53-.09.55.09.41.21-.86.83-.48.62-.08.6.16,0,.74.37.24.29.41,1.17-1,.6-.41.47-.11.76.26.74.45.16.48-.18.48-.39.18-.2.08-.13.14-.71.25-.12.8.12ZM144.2,100.92l.2,0,.18.16.09,0,.22-.21.13,0,.1.23,0,.16-.08.16,0,.2.39.75.17.17.22.16.19.21.08.32.36.94.1.17h1.76l.94-.28.46-.72-.54-.06-1.1.54-.56,0,.22-.49.4-.32.45-.16.36,0v-.22l-.28-.38-.15-.1-.23,0v-.27l.27-.23-1-1.55-.37-.21-.41-.15-.65-.65-.29-.18h-.23l-.83.3-.44.44,0,.13-.28.72.06.37ZM91.76,198.09l-.14.12-.12.19-.39.52-.17.42-.1.44-.14.39-.3.24.39.21h.52l.52-.14.38-.29-.06-.6.22-.67.61-1.06-.09-.4h-.21l-.3.14-.31,0,.05.22,0,.1.06.12-.16.14Zm11.48-7,.11-.4-.25.12-.43-.08-.24.19-.25.68.12.54.35.22.43-.26-.12-.45.1-.29ZM91.86,225.87V226l0,.27.14-.22.18-.36.11-.42,0-.35-.2-.1-1-.15-.25,0-.22.1-.21.15-.21.19.44.07.47,0,.46,0,.44.37-.07.16Zm9.94-31.72.36.92.19.21.18-1.06.19-.49.14-.49,0-.48-.1.19h-.1l-.09-.08-.1-.12-.23.26-.21.81Zm-11-27.56-.42-.47-1-.63-.74.09-.59.48-1.13,1.32.35.19.59.62.29.13.26.19.31.83.34.18.72-.07.53-.31.36-.72.26-1.26H90.4v-.25Zm67.32-77.25.11-.23.05-.5.33.11.39-.4.7-1,.14.2.15,0,.37-.22v.25l0,.12-.1.39.83-1,.32,0,0,.8.19-.12.13-.21.38-.87.2-.2.15-.4.36-.19.9,0-.06-.36-.18-.78-.11-.1-.26.31-.41.64-.28.09h-.3l-.29.05-.5.56-.62.12-.22.22-.06-.14-.05,0-.15,0,.48-.59.28-.26.28-.18V85l-.47,0-.77.46h-.45l.28.42.11.11-.09.52-.14.12h-.18l-.23.12-.16.22-.31.57-.17.24-.25.19-.17.08-.13.19-.1.52v.42Zm11.34-34.85.45.2.28-.42v-.68l-.08-.32-.22-.07-.44.07-.29.21-.13.17,0,.28.13.23Zm-14,35.38.29.07.25.21.17.35.07.49.14.14.33,0,.56-.21v-.26l-.32,0-.15-.3,0-.47v-.59l.09-.18.42-.65.12-.31-.12-.34-.18-.18-.22,0-.25.06v-.25h.14v-.27l-.31,0-.19.21-.08.38.06.47,0,.24.1.63,0,.13-.21.07-.19.12-.19,0-.24-.21Zm4.07,2.52.29.42,0,.83.4-.25.82-.13.34-.38-.52-.33-.12-.23.12-.42,0,0h.06l0,0v-.19l-.44.26-.25.07-.22-.06-.22-.33,0-.33.2-.2.25.06-.16-.18-.24-.06-.52,0,.06-.14.06-.12V90.4l-.27,0-.75.26.2.15.58.64.12.22-.09.42-.23.14-.3,0-.28.13-.39.69.29.28.41-.14-.05-.58.33-.27ZM178.56,76l.27-.06.06,0h0l0,0v-.18h-.37l-.43.16-.35.38-.14.62.11.55.27-.1.34-.36.31-.2v-.28h-.26l0-.29Zm4.74-19.47-.09.43-.24.34,0,.17.27-.24.29-.49.05-.23,0-.23,0,.1v.45l-.08.4,0,.27h.11l.12-.26.17-.59.15-.39.1-.38-.07-.29-.13,0-.15.21,0-.19.13-.5v-.35h-.1l-.13.16-.34.09,0,.17.12.18,0,.24-.18.38Zm-6-6.43.16.21.39.07.15.07,0,.17,0,.19.11.14.18.06.41-.06.58-.39.27-.09.12.33.09.38.23-.05.22-.35.1-.52.08-.3.46.79.24.2-.24.12-.57.15-.22.22-.1.25,0,.18.12.35.06,0,.41.46,0,.09.73.52.18,0,.15-.29.06-.42.08-.4.23-.21.09.51.17-.09.14-.5,0-.7.25,0,.17.13.37.39.13-.54-.24-.57-.26-.45-.3-.33-.36-.18v-.29l.62.16.39.4.27.64.26.88.53-1.2.28-.39.36,0v.25l-.19.2-.17.3-.15.38-.28,1-.06.31.06.14.21,0,.08-.13.27-.21h.2l-.3.8-.06.18v.15l.08.37.11,0,.11,0,.1.15.1,1-.2.75-.28.74-.29,1.8-.28.64-.21.59.11.67h-.5v.26l.16.11.34.43V61l-.22,0-.21.07-.19.19-.15.3.11.59-.34.49.23.46.3.17.6-.15.28.26v.26l-.21.33,0,.29.15,0,.15-.39.32.58.07.19.18-.18.07-.28-.05-.32-.2-.27.16-.51.05-.44-.06-.41-.15-.44.05.08.08.18.26-.53.17-.71,0-.79-.09-.78.6.4.27,0,.17-.42-.43-1.08-.08-.51.3.12.35-.07.28-.29.1-.53h-.18l-.34-.36-.19-.5.33-.43-.38-.22-.15,0V55.1l.2,0,.14-.07.1-.17.09-.32-.27-.28h.33l.2-.26.2-.19.31.22v-.26h-.14V53.5h.53v-.23l-.65-.54.27-.67-.21-.18-.41.18-.3.43.1-.56.55-1.28-.25.09-.19.18-.34.51.16-.54.1-.27.13-.25h-.77v-.24l.31-.21.15-.05h.19v-.24l-.14-.14-.11-.21,0-.24.13-.21.18,0,.16.27.18.51.32.09.35-.15.75-.74-.11-.1-.26,0-.14-.1-.1,0-.14.2-.09-.06-.06-.16,0-.22v-.2l.07-.08.21-.13.9-.94-.49-.38-1-.24-.39-.39.29-.13,1.47-.16.16-.17.1-.38,0-.4,0-.21-.12-.41h-.24l-.25.18-.11.11-.18.38-.14.18-.12-.06,0-.31.11-.29,1.34-1.61.27-.66H189l-.36.23-.29.44-.17.63,0-.3,0-.13L188,42.8l-.16.27-.09.31-.06.29-.07.22-.16.16-.09,0-.07,0-.07.39h-.14l0-.74-.23-.16-.64.38v-.28l.19-.17.08-.09-.45.22-.23.06-.06-.09.19-.14.19-.19.15-.27.19-.17.42.24.23-.21-.25-.24,0-.08.09-.18-.08-.44-.15-.3-.19-.19-.23-.11.12-.42-.25-.4-.34-.21-.18.1-.07.26-.39.68-.17.23,0-.64-.18-.1-.24.21-.2.29.27.35.89.69-1.2.22-.51.4,0,.69-.19.17-.22.11-.24,0-.24,0v-.28l.35-.33.45-1.34.36-.16V41.5l-.06-.23.06-.24.26-.58-.12-.24-.14.21-.16.16-.17.09-.18,0,.38-1.28-.14,0-.08-.07-.06-.08-.1-.07.21,0,.08-.07.09-.19h-.38l.22-.51.28-.29.15-.41-.14-.88.19-.06.1-.16,0-.24-.06-.33.08-.26v-.31l-.19-.77-.43.84,0,.39.33.37-.07.12-.06.17-.45-.41-.52-.29-.51-.08-.46.23.05.17,0,.15,0,.19-.17.28.07.06.2.22-.58.45-.21,0-.09.14-.26.66-.16.27.3.08.22.28.17.29.14.14h.48l.28.08.21.17-.62.38-.72-.25-.62-.65-.23-.81-.25-.42L180,38l-.22.3-.18.36-.05.24v.54l-.09.27-.11.05-.47-.05-.17.21-.17.44-.1.45.06.21.65,0,.27-.14.18-.45.3.35.29,0,.31-.1h.39l-.25.27-.11.36.06.31.3.13.19-.18.2-.4.25-.75.15,1.22,0,.66-.06.47.19.21.25.08h.59v.26l-.2.28-.07.36.08.37.19.29.21.05.21-.14.36-.43.11.82.45.3.55.12.46.32-.94,0-.34.12.23.43-.28,0-.11,0-.13-.16-.39,1,.53.55-.27.34-.26.44-.19-.85-.42-.51-.5-.17-.44.2.08.39,0,.16h-.39l.06.16.11.4.09.22-.08.09-.21.15-.1,0,0-1.14-.26-.3-.89.11v.27h.14v.26l-.65-.26.14.52h-.33l-.22-.23-.21-.32-.28-.25-.31,0-.36.11-.35.2-.28.25-.27.33-.08.23.21.74Zm-23.5,53.15.54-.35,0-.44-.44-.21-.87-.07-.83.17-.73.33v.22h1.29v.27l-.22.17-.24,0-.23,0-.22-.17.58.93.2.55-.26.26v.27l.91,1,.41-.27.13-.38-.08-.49-.21-.61.23-.21,0-.22-.1-.24,0-.33Zm34-48.49.55.42.19-.09.13-.82.14-.32.13-.4,0-.55v-.26l-.23.21h-.14l-.06-.33,0-.38-.08-.2-.14.06-.06.32-.15.09-.34-.17-.36.06,0,.41.31.47,0,1.23Zm-36.9,29.7h.15l.18.12.17.28.07.2,0,.2.28.78.09.2.13.13.2.11.16,0,.13-.1.15-.33.27.28-.18-.4-.09-.13v-.28l.52.07.5.3.94.92-.14.23-.07.22,0,.25,0,.33.43-.62.23-.18h.38v-.23l-.17-.25-.19-.07-.2,0-.21-.14-.11-.21-.35-1-.27-.15-1.48-.47V84.3l.13,0,.39,0-.08-.32V83.8l.21-.27.05,0h0l0,0v-.17l-.34-.25-.29.21L152,84l-.3.14-.6-.15h-.4l.07.35ZM96.22,208.24l.12-.51.19-1.29.14-.26L97,206l.47-.59.2.07.41-1.35L99.65,201l.76-1.88.38-.4.28-.5.3-.3,0-.41-.06-.47-.07-.32-.4-.2-.58.39-1,1-1.44,1.44-.58.18-.38.3-.58.72-.53.87-.24.77.29.54.64,0,.69-.2h.45L97,203l-1.48.28-.56.47-.3.33-.33.18-.28.23-.18.52,0,.59.17,1.61.29.85.68.45.74.05ZM146.07,97.89l.64.24v-.22l.46-.46.16-.34-.1-.47,0-.06,0-.29-.07-.23-.17-.15.16-.13.16,0,.16.05.18.12v-.25l-.12-.24,0-.22.14-.17.2-.12.06.27.09.26.1.24.14.23v.22l-.3.51-.23.69-.06.79.2.81.48.47,1.13-.2.47.21L150,99l.23-.12.58.05-.27-.52.24,0,.2.09.17,0,.19-.15.35.09.3-.31.27-.36.23,0,.15.24.68,1.48.21.3.21.21,1.43.6.3,0,.29-.23.44-.83.25-.18.72-.17.36-.19.15-.26v-.55l0-.42-.11-.28-.27-.15-.31.06-.63.43-.34,0,.12.25.26.77-.36.09-.32-.1-.28-.31-.21-.48.28-.29.77-.56.12-.37-.1-.23-.17-.08-.44,0-.34.13-.31.27-.33.2-.38-.08,0-.17.06-.43,0-.17-.32.26-.21-.2-.21-.35-.3-.19-.26.14-.25.23-.27.07-.7-.67-.33.26-.29.46-.29.24-.71-.1-.36-.15-.29-.26L150,96l.43-.38.37-.54.16-.59.18.08,1.12-.46-.09-.06-.09-.11-.09-.08.07-.13,0-.06.15,0L151.21,93l-.36-.41.13,0,.27-.22-.18-.14-.29-.44-.2-.15-.21,0-.24.11-.24,0-.66-.68-.5-.18-.91,0-.91.18-.85.58-.5,1.09.12,1.66-.13.25-.3,1.09.26,1.22Zm44.53-65,.3.22.3.08.57-.07.27,0,.37,0,.16.1.15.13.15.09.19,0,.27-.32-.13-.38-.27-.43-.13-.47.13-.23.78-.8v-.29l-.12-.11-.12-.08-.13-.05.37,0V29.9l-.12-.46.23-.28.38-.22.29-.33-.15,0-.37-.23.36-.22.16,0-.07-.47-.14-.31-.21-.19-.24-.11-.27,0-.11-.06-.12-.19-.19.3-.4,1.42-.17.21-.27.21-.23.12,0-.12.19-.32.21-.21.18-.25.08-.43-.07-.52-.19-.3h-.21l-.19.39v.36l-.25.45-.36.38-.3.16v.28l.24.31v.58l-.18.53-.32.14.13.47,0,.54-.1.31-.34-.27.09.28,0,.33,0,.36ZM150.45,91.08l.49.34.55.17.6,0,.56-.22,0-.5-.06-.58.32-.46.07,0h.05l0,0v-.19l-.28-.15h-.25l-.77.19h-.14l-.12,0-.13-.11-.07-.16,0-.15,0-.08-.47,0-.53.27-.34.5.1.67Zm36.61-51.25.44.48.63.14v-.24l-.2-.25,0-.23.12-.15.06,0,.09.3.24.09.46,0,.45.2.15-.09,0-.48,0-.45-.08-.33-.29-.66.37-.1.22-.38v-.47l-.33-.38.1-.08v0l0-.12-.29,0-.3-.11-.23-.24-.09-.43.26.21.27.06.27-.08.24-.19-.43-1.07-.26-.49-.22-.28.37.05.32.27.61.73.14-.4.12-.41-.33-.75V33l.2-.46-.09-.07-.07-.12-.1,0V32l.11-.09,0-.15v-.53l-.82-.07-.39.13-.22.45-.2-.67h-.24l-.22.37-.19.42-.08.29,0,.4,0,.34.1.15.05.12-.18.56-.05.26.06.52.26,1,.06.18-.21.1-.29-.27-.21-.45.06-.46v-.24l-.63.13-.17.82L186.8,39Zm3,5.22-.21.1-.2.27-.09.28,0,.2-.1.14-.1.21.36.23.74-.24.52-.59.32-.48.26-.31.12-.22,0-.17-.11,0-.06,0-.19.07-.67.07-.13.2-.18.13ZM88.89,393l-.11.06v.15l.15.16.09,0,0-.16-.07-.12ZM107.68,212.1l-.45.72-.26.72-.09,1.08.16.8.36.67.46.66-.08.16,0,.11,0,.08-.1.09v.22l.08.26.17.89V219l.78.68.78.5.87.31,1,.11.87-.17.49-.21.26-.31,0-.55-.2-.51,0-.44.43-.3-.78-.35-.15-.12-.1-.44.17-.12h.27l.19-.11,0-.75-.81-.85.21-.45-.37-1.65-.27-.71-.39-.63-.33-.32-1.23-.61-.15,0-.49,0,0,.11.05.25,0,.12-.64.11Zm-6.15-17-.14-.25-.64.51-.3.32-.21.56.45-.07.59-.19.39-.35ZM225.87,347.79l-.18-.1-2.34-.82-.25.07-.13.18-.24.83.18.37.26.41.33.33.37.14,2.21.19.47-.2.11-.36-.18-.45-.4-.43Zm16-34.13,0-1.11,0-.61-.11-.48.12-.66-.25-.91-.34-.91-.36-1.47-.45-.77-.55-.62-4.69-3.61-2.29-1.18-5.83-1.42v.22l.25,0,.23,0,.22.09.2.14-.85.4-.9-.23-.86-.42-.75-.2H223l-.41-.09-.42-.18-.41-.1-.39.14.14.23-.91,0-1,.2-.93.43-.65.69-.26.53-.29.76-.25.85-.1.75-.24.42-.5.56-.38.58.1.49v.21l-.28-.14-.53-.77-.3-.18-.76-.07-.39.06-.34.25-.46-.57-1-1.5-.45-.31-.26-.1-.53-.44-.24-.11-1,.24-.58,0,0-.38.25-.44.3-.21.45-.17.39-.43,1.49-2.21.26-.2.35-.14,1.68-1.72.31-.2.38-.08.21-.09.11-.22.4-1.64V293.2l-.27-1.19-1.54-4.26-.08-.43-.21-.5-.3-.44-.33-.25.14-.22-.54-.39-.17,0-.11-.13-.05-.29,0-.33-.06-.23-.31-.36-.33-.15-.35-.08-.37-.17-1.81-1.49-.88-1.11-.27-.11-.66-.1-.33-.24-.58-.7-.85-.44-1.35-2.12-.36-.64-.53-.22-3.38.63-.52.42-.3.11-.28-.19-.21-.22-.77-.55-.44-.12-.57,0-.52.25-.28.5-.15-.15-.16-.12-.16-.1-.18-.06,1.29-.87.4-.13,1.1.13.05.07.47.46.13.06.64-.15h1.51l2.37-.81.85.14.66.48,1.8,2.36.33.27.38.21.44.12.46.05.4-.1.73-.47.37-.08.41.15.82.61.39.13.3.23-.09.54-.41,1,.41-.33.11-.12.23-1-.3-1.05-3.37-5-2-3.14-.33-1-.54-2.1-.42-.89.47-1.28.58-.67,1.67-.93-.68-.62-2.31-.93-.5-.54,0-.12-.13-.86-.15-.32-.43-.23L203,260l-.18-.15-.77-.2-.15-.17-.36-.53-.15-.17.05-.12.08-.33-.2-.08-.15-.16-.1-.21-.07-.22V257l-.23-.81-.32-.77-.28-.52-.27-.26-.63-.47-.19-.27-.06-.33,0-.26,0-.29-.22-.45-.54-.53L194,249.32l-3.88-1.21-.92-.62-.79-.11-.37-.13-.32-.28-.33-.44-.17.92-.11.17-.23,0,0-.07,0-.16-.08-.15,0-.08-.09,0,0,.09v.1l-.05.06-.19,0-.13-.06-.09-.13-.05-.24.45-.2.18-.16.15-.28-.15-.18-.11-.21-.08-.25,0-.26-.11-.19,0-.1V245h.38v-.24l-1-.46-.29-.21-.66-.87-.4-1-1.12-4.08,0-.3-.13-.12,0-.29,0-.73v-.19l0-.15,0-.2-.14-.36-.53-.55-.06-.1-.21-.15-.13-.38-.09-.42-.09-.29-.18-.29-.3-.84-.07-.27,0-.09-.07-.06-.24-.11-.07-.06-.07-.2-.17-.7-.07-.72-.08-.24-.33-.5-.08-.34.09-.29.13-.28.05-.33-.12-.34-.19-.17-.09-.21.15-.43-.43-.48-.24-.36-.1-.39,0-.22-.07-.21,0-.22.09-.24.07-.14.05-.14,0-.15,0-.16-.06-.58-.46-.86-.12-.72v-.47l.1-.54,0-.32-.06-2.23-.09-.4-.13-.14-.19-.11-.09-.16.15-.29v-.23l-.36-.35-.16-.1V217l.26-.21-.2-.23-.13-.24,0-.24.11-.22v-.23l-1.29-.93-.41,0-.67.18-.23-.13v-.21h.39l-.17-.47-.23-.29-.24-.12-.21,0-.07.07-.08.17-.12.16-.18.06-.1-.12-.08-.24-.1-.24-.41-.29-.19-.41-.28-.78-2.49-3.21-.26-.5-1.07-2.14-.37-.41-.4-.17-.15-.1,0-.25,0-.31-.1-.28-.17-.08-3-.6-.82-.45-1.19-1-.73-.23-.77-.55-.27-.3-.13.15-.19.18-.08.13-.29-.2-.48.09-.26-.1.1-.18.17-.55-.35-.22-.54-.75-.36-.16-3.16-.23-.39.17-.56.67-.34.31.08.13.06.16.1.4-.47.06-.32.42-.31.52-.44.38-1.43.64-1.19.12-.23-.05-.12-.12-.34-.48-.13-.11-3.43-.28-.32-.28-.2-.27-.19,0-.33.16h-.89l-3.25-.92h-.42l-1.07.23-.22-.09-.13-.19-.09-.23-.13-.18h-.13l-.37.07-.16-.06-.09-.25-.65-1.16-.16-.09-.16-.26-1.13-.8v-.21l.39,0,.25.17.4.51.7.67.66.47.73.25,1.68,0,3.06.91.74,0,.74-.13.74-.35.66-.45.38-.17,1.32-.07.28-.2.21-.49.27-1.14.2-.36.38-.14.31-.18,1-1.21,1-.71.15-.32.19-.25.46-.12h.91l1.16.62.46.08.43-.12,1.2-.83.91-.2.44-.22.35-.67,1-1v-.21l-.68-.61-.15-.09-.65-.6-.41-.21-1.73-.14-.13-.24-.13-.07-.17,0-.21-.1,0-.13-.08-.46-.08-.11h-.46l.3-.35.25-.5.14-.61,0-.65-.23-.43-.67-.05-.33-.34-.33-.21-.46.08-.4.26-.17.33-.2.22L149.35,189l-.73.18-.8.48-.39.11h-.81l-.32-.13-.23-.32.82.27.79-.33,2-2,.65-.51.74-.33,5.58-.82.24.07.15.14.13.09.18-.09.37-.9.16-.27.73-.36.39-.28.32-.72,1.77-1.27.29-.37.2-.59.34-.37.1-.24v-.2l-.12-.47v-.27l.19-.51.26-.34.23-.42.21-1.51.26-.56.34-.4.32-.29,1.05-.68.31-.37.45-.81.51-.73.65-.52.28-.38.11-.63.08-.17.35-.46.09-.19v-.42l-.09-.26-.11-.21,0-.29.24-1.24.58-1.25,1.71-2.75.31-.65-.06-.3-.36-.29-.05-.65.11-.7.45-1.81,1.22-3.24.48-.76,2-1.86,0-.49.33-.62.77-1.07.44-.38.13-.22-.24-.09-.17-.15,0-.3.13-.26.27,0-.54-.62-.2-.38.08-.44v-.22l-.3-.56-.1-.62-.06-.64-.17-.6-1.61-1.81-.21-.47-.14-.15h-.22l-.32.28-.23,0-.16-.2-.17-.32-.11-.31v-.14l-2.09-.07-.31.07-1.13.87-.49.1-.38-.13-.83-.52-.4-.07-.16.07-.18.14-.13.19-.06.2-.1.17-.23-.06-.37-.23-.17.07-.32.31-.22.12-.2,0-.17-.16-.15-.06-.13.27-.89-.46-.35,0-.24.16-.14.27-.15.05-.3-.48-.59,0-1.62-.56-.64.31-.2-.22-.15,0-.16.12-.21.07-.19-.08-.19-.34-.13-.09h-3l-.32.12-1.16.85-.77.24-.83,0-2.48-.87-1.41-.93-2.35-.1-.23.06-.5.32-.24.1-.23-.05-.19-.11-.17,0-.19.36.11.41-.18.45-.3.38-.27.21-.36.08-.38-.05-.69-.25.38.94-.28.07-.26.12-.24,0-.25-.21.15-.17.1-.16.14-.39-1.13.26-2.88,2.17-.59.18-1.81-.18-1.73.28-.53,0,.71.64.22.39-.35.17-.27.07-.29.2-.28.27-.35.52-.2.1-.42,0,0,.1-.14.23-.31.39-.39.2-.34,0-.69-.18.22-.28.21-.36.35-.8-.24-.18-.25-.06-.54,0v-.26h1l.43.14.13-.05-.17-.33.31-.42.37-.21.87-.09-.07-.07-.06-.1-.06-.13-.06-.18.66-1.07.55-.44.55-.68.39-.73-.09-.45-.29.05L132,144l-.24.27-.3.24h-.41l-1-.21-.25-.32-.21-.1-.16,0-.8.42-.73.76-.86.53-.23.32-.2.35-.26.36-.28.28-.57.24-.25.2-.1,0,.16-.54.15-.35.17-.23L126.9,145l.27-.11.28-.23.13-.49.14-.4.32,0,.35.07,1.23-.35.48,0,.25-.11,1.46-1.33.67-.25.5.5-.23.55.09.35.3.14.37-.08.24-.26.5-.76.44-.35,2.56-3.39.15-.31,0-.58-.12-.34-.24,0-.28.33-.54.79-.67.64-.7.32-.62-.17.26-.46-.34-.45-.6-.14-1.07.85-.66-.18-1.21-.83.1.59h-.3l-.45-.33-.33-.4-.33-.31-.39.07-.76.37-.73-.17-.6-.5-1-1.51.38.13.36.33.61.85.42.3,1.52-.4.53.14,1.08.57h.53l.16-.13.33-.46.17-.13h.29l.56.22h.3l-.08-.4.09-.37.39-.66-.4-.69-.13-.16-.29-.14-.59,0-.28-.22-.16-.31-.06-.29.09-.15.54.33.49.06.26.14-.13.22.09.09.31.18v-.38l.07-.29.13-.21.18-.12,1.21-.85.6-.14.47-.26.17-.18.1-.26.19-.72.17-.38.34-.35,1.4-.72,4.15-3.44.79-.9.36-.59.15-.6.17-.33,1-1,.66-.42,1.65-.59.8-.46.71-.82,1-1.47.82-1.62.17-1.27.2-.06.17-.2.08-.33-.06-.42-.15-.2-.18,0-.21.12-.23,0-.4-.25-.2-.43v-.58l.21-.71.14-.24.49-.47.17-.31.29-.66.21-.3.09-.53.36-.75.12-.66-.64-.28-1.24.25h-.63l-1-.72-.77.08-1.23.39h-.59l-.14-.14-.07-.32,0-.34-.08-.19-.31-.06-.29.19-.43.59.2.49.31.37.34.26.32.14-.25.72h-.52l-1-.48-1.08.39-.53,0-.46-.43.07-.06.19-.19-.43-.21-.61,0-1.18.23-.72.35-1.3,1-.82.39-1.61.27-1.62-.27-.42.09-.11-.1-.35-.7,0-.09,0,0-.17,0-.17.12-.25.61-.16.26-.21.14h-.17l-.39-.13h-.72l-.22.11-.14.47-.17.11-.26,0-.36-.18-.21,0-.12.13-.09.2-.11.23-.21.15.27.27-.43-.12-.56-.54-.37-.13-.19,0-.51.25-.73.51,0,.08-.77.84-.08,0-.08.06v.14l0,.17,0,.15-.52.76-.31.32-.33.15.34-.79.24-.74.28-.66.44-.52,0-.36v0l0-.12v-.28l-.93-.69-.79-.36-.81-.16-.46.21-.2.51-.11.65-.21.63-.34.35-.39.18-.3.25-.13.56-.18.11-1.12,1.26-.35.06.18-.5.36-.68.34-.9.67-.67.22-.29.08-.22.07-.34,0-.3-.19-.13-.24-.07-.53-.42-.32-.16-.58-.78-.33-.29.09.6-.1.26-.17.22-.08.53v.39l0,.37-.15.32-.35.29.12-.27.09-.27,0-.32,0-.4,0,0-.12-.49-.1-.56v-.2l-.34-.44-.44-.29-2.43-.55-.32.38-.13.62-.06.74-.15.75h.13l-.22.56-.28.31-1,.6-.14.17,0,.31V115l2.08,1.84-.57-.4-.46-.22-1,.62.18.18.08.06.13,0v.24h-.25v.27l.21,0,.21,0,.18-.09.18-.19.13.27-.07.29.18.24.53.43-.79,0-1.1-.76-.12,0-.25-.15-.14,0-.07.08v.21l0,.24,0,.19-.18.37-.13.36v.36l.19.38h-.38l0,.26.06.27.15.45.07.07.36.55,0,.14.19.19.56.84.28.19.21.08.39.34.19.07.2-.07.21-.32.16-.1h.37l1.2.25-.26.18-.54.1-.25.21.52.4.21.21.19.39-1.3-1-.29-.08-.94.08-.26-.12-.57-.51-.34-.11-.17.07-.26.17-.26.24-.14.26-.4-.33-.41,0-.4.14-.75.51-.32.09-.32-.09-.79-.56-.44-.19-.3.1,0,.6.87,1.35.19.14h.24l0,.17-.06.42,0,.16.18.07.17.1.16.14.14.18-.14.22.26.21.3.07.62,0v.26l-.25.15-.54.13-.25.19.38.27v.24h-.25l.13.25.09.29V129l-.09.35h.11l-.45.58-.41-.06-.41-.13-.41.34-.45-.94-.72-.2-.36.48.62,1.15v.24l-.1.12,0,.11,0,.12-.07.16.78-.05.37.13.28.4-.08.1v0l-.05.09.49.1.77,1,.56.14.27.26.61.12.23.21.17.44,0,.41-.15.26h-.37v.26l.46.13,1.89,1.66.1.24,0,.25.11.34.13.32.11.19-.39-.25-.54-1-.8-.38-.69-.68-.24-.15-.18-.07-.43-.32-.24-.07-.2,0-.36.19-.21,0-.41-.23-.53-.78-.36-.23-.11.43-.14,0-.14-.16-.12,0-.08.24V135l0,.08,0,.2.15.15,1.22.55.82.87.56.25.21.22.28.5-1.37-.54-.63-.4-.54-.64-.25-.22-.86-.38h-.25l-.18.37-.22,1-.23.3.12.24-.61-.07-.77-.42-.54-.71.11-1h-.69l-.21-.14-.27-.35-.15.28-.44.59-.18.34,0,.14.06.06.14,0-.2.36.25.41.73.69.26.54,0,.46-.07.5.12.69-.35-.22-.19-.05h-.24l.15.43.09.17.14.17h-.31l-.29-.15-.25-.26-.18-.37-.15-.52-.12-.72-.06-.7.07-.48-.47-.3-.49-.16h-.5l-.48.19-.24.21-.2.29-.14.35-.07.38,0,.44.17.72-.05.29,0,.41-.09.92.06.38,1.57.37.22.14.19.22.13.24.13.18.21.06-.15.38-.2.27-.24,0-.55-.63-.36,0-.7.4v.26l.1.32-.38.44-.11.42.1.44.23.14.29,0,.29.13.35.56.24.69.33.55.63.12-.16.35-.1.11.65.76.52-.46.84-.12.85.2.58.49-.08.23-.44,0-.78-.14-1.36.24,0,.17,0,.17.06.18.1.2-.2-.06-.57-.4-.17-.13-.32-.51-.16.14-.33-.24-1-1.06-.33-.21-.33-.07-.34.14,0,.16.06.4,0,.16h-.29l-.08.27v.45l0,.5-.07.22-.26.59,0,.26,0,.45.17.61,0,.37.13.09.58.17.2.11-.2.23-.07.24v.47l0,.11.18.27,0,.12,0,.11-.09.1-.09.06,0,0,.32,1.38.44.22,1-.15L101,155l1.27-1.69.3-.29h.09l0,.23.16.43.05.3-.17.23-.46.31.55.08.46.22.44.07.49-.37.86-1.22.51-.54.32.08-.16,1-.85.79-2.11,1-.44.08-.1-.13-.1-.23-.14-.14-.17.15-.16.19-.41.25-.16.17-.44,1.07-.07.12.16.48.39,0,.81-.27.37.08.72.34.4.06.37-.14.67-.47.32-.11.22-.22.24-.43.32-.29.46.2v.26l-.46.18-.46.5-.24.52.18.23.18.1.19.24.28.51.17.16.79.18v.24l-.74.24-.64-.49-.59-.72-.61-.46-.65.15-.79.51-.46.66.35.59-.25.48-.66.95-.13.6.24.35,1.58.48.21.21.49.62.13.13.25,0,.44-.18,1.59-.28.37.24v.26h-.13l-.13-.07-.32-.08h-.31l-.14.26-.09.11-1.86,0-.38-.2-.81-.62-.47-.19-.33.2-.2.17-.55-.06-.23,0-.14.13-.22.38-.79,1-.28.57.2.26.2.07.33.32.19.09.21,0L101,166l.17,0,.42.3,0,.48-.07.44.29.2.39.15.39.26.41.12.43-.3.25.14.28-.1.3-.18.33-.09v.23l-.91.46-1,.25-.62-.1-.29-.14-.27-.21-.22-.29-.37-.67-.18-.22-.49-.1-.59.21-.53.38-.33.43-.2.69-.17.8-.21.71-.33.4.38.4.14.09V171l-.66,0-.64.17.88.24,1.78-.41.85.17-.75.83-.17.35.75.2h.38l.3-.57.31-.17.35,0,.25.12-.61.63-.78.34-2,.29-.26.26v.38l.36.44,1.42.7-.38-.1-.48-.14-.43.15-.27.34-.21-.17-.22-.09-.23,0-.23,0v.25l.34.06.19.26.09.36,0,.37-.16-.13-1-.44-.28-.22-.18-.24-.19-.19-.32-.08-.28.11-.66.5-.23.12-2.9.31-.24.21-.42.65-.14.08-.13-.06-.09,0,0,.33,0,.22.06.2.08.19.1.19.25.24.44.26.46.1.35-.23.37-.37.48,0,1.39.39,1.31-.1.24.06.43.31.24.1h.2l.71-.21,2.06-1.14.78.21,1,.6.42.08,1.75-.24-.4.27-.55.15-1,.07-.47-.1-1.19-.62-.46.05-2,1.36v.34l.19.23.45.36-.14.26-.52-.52-.61-.31-.65-.14-1,.07-.27.1-.19.26,0,.54.12.27L98.25,183l1.15.25.7-1h.14l0,.34-.08.27-.29.56.23.27.33.23.36.15.31.07.2.09.22.46.17.13.13-.06,1.28-1,1.25-1.5.75-1.15.21-.24.22-.17.24-.07.18-.15.27-.62.19-.14.38-.08.3-.21.54-.67.21-.43.16-.19.4-.16.17-.31.17-.06.33,0,.28-.13.25-.29.25-.51.06-.28,0-.3.06-.26.16-.1.2,0,.23-.14.2-.19.08-.22.16-.28,1.12-1-.31.67-.35.57-1.27,1.4-.12.18-.19.48v.2l1.47.71,3.12-.69-.33.23-1.52.35-.74.5-.39.11-.82-.25h-.42l-.56.5-.24,0-.48-.05-.43.37-.16.1v.25l.36.26-.23.43-.78.72-.16.22-.49,1,0,.13-.07.29-.07.16-.11.14-.09.08-.07.11-.06.25.26,0,.3.35.23.1.23-.06.41-.35.2-.08.32-.25.08,0,.38,0,.21-.05.63-.4-.2.3-.23.18-.48.22-.9.71-.36.15h-.42l-.46-.18-.46-.45-.1.48-.67,1.64.26.21.36-.74.22-.3.26-.13.31,1.31.3.22.53-.48,2,.47.8-.1.21-.22.44-.73.77-.7.29-.53.21-.6.25-.51.41-.23-.39.56-.62,1.4-1.2,1.65-.51.44-.63.15-1.52-.43-1.91.16-.63.32-.48.67.08.28-.15.16L105,188l-.2.14-.15.27-.38,1.12.42.1.81-.28.46,0v.21l-1,.39-.51.06-.35-.21-.36.4-.18.44-.23,1.27-.21.71,0,.38.12.3.18,0,.19-.17.17-.22.17-.11.79-.25.25.11.12.25,0,.25-.22.11-.37.08-.41.25-.23.35.17.45-.35.55-.33.65-.24.69-.12.7.44-.36.37-.59.43-.52.58-.17-.12.46-.13.31-.61,1-.07.22,0,.29.12.53.06.06.11.08.13.13.09.22,0,.2-.15,0-.16-.11-.05-.07v0l-.11-.08-.15-.07-.13,0-.12.07,0,.14,0,.16-.06.12-1.42,2.08-.69,1.38-.11.89-.07.2,0,.24,0,.2.19.07.07-.1.32-.61,0-.74.82-1,.11-.63.3-.18.26-.24.23-.13.24.11-.1.17-.11.12.08.15-.16.42-2.07,3.24,0,.37.12.39.13.22h.17l.34-.36.5-.26.64-.77.42-.22-.28.38-.34.32-.29.36-.12.45-.12.27-.79,1.21.1.26v.9l.15.46.26.33.25.16.52.2-.13.43h.25l.23-.09L104,209l1.83-2.08-.35,1-.59.88-.65.62-.55.23-.25.22-.32.49-.28.57-.12.46-.14.38-1,.88.22.46-.08.66-.4,1.18-.44,1-.07.38,0,.24.13.22.08.24-.26,1,0,.75.09.75v.7l-.19.34-.72.85-.53.45-.1.65,0,.75.22,1.42.2.4.34.13h.55l.21-.06.43-.32.2-.09h.22l.37.19.18.05.45-.09.42-.22.37-.3.31-.32.63-.88.19-.51-.23-.21v-.14l-.31-.75-.17-.25-.18-.18-.19-.08-.23,0v-.21l.44-.27.3-.46.42-1.11.08-.08.09,0,.06,0,0-.26,0-.64,0-.17.11-.33.4-.79-.12-.63.22-.19.3-.13.12-.44-.15-.34-.23-.06-.17-.2,0-.76,0-.1-.07-.15,0-.15.41-.31,0-.27,0-.59.05-.28.14-.42.18-.37.21-.31.86-1,.29-.2.64-.22.26-.22.13-.46-.17-.86-.47-.79-1-1.14.09-.07.09-.11.09-.07-.19-.17-.08,0v-.23h.13v-.21l-.23-.22-.06-.26,0-.32-.08-.39-.18-.67-.11,0-.28-.15-.07-.08.14-1.81v-.43l.07-.18.14-.08,0,.21v.29l0,.16.35.12.47,0,.41-.12.17-.38.06,0,.12-.41.09-.48V200l.15-.1.34,0,.17-.1,1.56-2.41,2.26-1.54.18-.24.45-1.19.2-.42.29-.26.32-.14.77-.06.32-.17.69-.78.33-.23-.37.89-.65.49-.73.32-.57.38-.3.45-.67,1.55-.18.2-.79.62-1.1.46-2.06,3.62-.46.53.23,1,0,.29,0,.28-.18.38,0,.26,0,.62,0,.31.06.24.14.17.15.08.11.12.12.84.2.27.63.23.83.48h.34l-.13-.6-.19-.52-.45-.95.56-.81.09-.25,0-.34.11-.47.17-.44.19-.26v.71l.17.43,1.25,1,.36.12.16-.32-.15-.71-.72-1.83-.29-.56.3-.24.14.28.1.43.76,1,.07.67.19,1,.27.86.3.37.6.13.22,0,.27-.3.18-.34.08-.31.06-.33.09-.4.16-.3.22-.26.19-.33L116,203l-.09-.38-.19-.27-.25-.17-.24-.12v-.23l.32.09.31.18.28.1.26-.14-.1-.38,0-.45v-.66l-.08-.69,0-.25.24-.1.05-.53-.17-1.16-.26-1.19-.22-.61.26-.31.25.09.2.36.08.45,0,1,.14.27.41,0,.27-.39,1.08-2.28.26-.35.2-.16.09.13-.08.49-1.35,2.17-.73,2,0,.28,0,1.28,0,.62.21.47.44.19h.46l.35-.06.12-.28-.21-.61-.9-1.36-.11-.42v-.34l.09-.25.28.07v.16l.25,1,.22.43.29.45.35.36.77.29,1,1.23.82.53,2.81.6-.46.31-3.15-.49-.41-.26-.21.1-.32-.06-1.2-.56-.26,0-.35.07-.59.25-.43.37-.27.59-.12.9.19,2.41.09.34.12.29.12.4.08,1.14-.29.72-.84.89.37.54.62.56,1.09.72v.25l-.14.31.18.13.61,0,1,.45.55.47.41.69.09.74-.4.61.69.23.46.58.17.8-.17.91-.45.66-1.26.6-.61.56-.18.37-.15.78-.12.31-.15.2-.35.29-.62.79-.11.2,0,.31,0,.72,0,.32-.07.3L117,227l0,.16v.35l0,.11-.19.05-.09.08-1.23,1.67-.77.51-.37.38-.16.61,0,.67-.13.44-.34.81-.08.28,0,.22v.73l0,.39.27.65.06.32.11.3.68,1.38v.22l-.08.11-.06.13-.33.35-.34-.06-.31-.29-.25-.36-.09-.3,0-.79,0-.37-.09-.34-.14-.31-.28-.46-.07-.18-.18-.37-.19-.17-.09.38-.09.1-.21,0-.4,0-.26.26-.13.59-.06,1.19.1,1.3.35,1.17.54,1,1.8,2.18.38.17.18.19.12.42.08.45.09.3.12.12.16.07.35,0-.08.24v.23l.08.22.14.2-.22.3,0,.54.12.51.18.23.39.1.81.43.41.11-.25-.53V246l.1-.59v-.28l-.54-.47-.3-.77-.22-.78-.13-.35-.19-.14-.14-.34-.09-.38,0-.28v-.24l0-.16.07-.2.17-.29.29-.42.37-.4.43-.33.46-.21h.72l.4.17.35.93.41.25.85.24,2.23,1.4.62.61,1.09,1.7.17.13.67,0,.18.07.48.37.4.18.43.06.2-.07.13-.15.09-.15.1-.07.13-.27-.1-.62-.06-.68.24-.48-.27-.47.09-.4.17-.37-.06-.42-.23-.31-.24-.17-.27-.07-.3,0-.13-.22-.15-.47-.17-.77,0-.36.13-.41.15-.33.12-.14.3.08.13.23.09.36.18.46.16.24.22.17,1.41.68.28,0,.31-.16.46-.58.28-.18-.16,1.31.66,1.11,1,.63.73-.13-.18-.51.07-.56.21-.47.28-.24v.15l.26.12,0,.33-.08.43,0,.33v0l-.05.12-.06.09.05.08.06.05.06,0,.08,0v.25l.59,0,.89-.12,1.49-1.13,1-.45.19-.15-.65-.65.26-.21.13,0,0-.13-.09-.34.29-.29.23-.36.07.1,0,.1,0,.24-.09-.14-.09-.05-.22.4.1.21.12.13.14,0,.17-.12-.06-.06h0l0-.17,1.34.22.41-.7.49-.07,1.77.17.31-.19.21-.53,0-.53,0-.71-.09-.65-.15-.35.24-.9.54.49.3.11.32-.15,0-.14v0h0l-.06-.07.27-.11.28.1.3.16.32.09,6,.45,1.6-.43.09,0,.46.21V236l-.36-.15-.29.13-.29.18-.36.06v.23h1.3l-.34.24-1.57.47-.38,0-.7-.23-.15-.12-.11-.14-.14-.12-.24-.07-1.18.36-.29.22-.49.54.95.48.24.19-.78.43-.2,0-.31-.12-.2-.25-.22-.17-.37.09-.44.54-.37.89-.61,1.92.17.56-.16.62-.31.54-.23.31-.21.15-.41.16-.16.14-.13.28-.26.82-.64,1.47-.5,2.54-.4,1.13-.09.08-.2.23-.14.25.19.22.2.47.1.1.31.18,1.78,2.5.44.39.65,1.36.44.22.06.06,0,.33.13.46,0,.29-.08.27-.05.25.1.51.25.43.56.71.69,1.22.41.41.39-.17.3-.07.43,0,.28-.15-.16-.62.18-.82.16-.33.29-.17,0,.65,0,1.09-.16.94-.62.19v.23l.29.24v.47l-.1.55-.05.49.18.23.22.14.26.07.3,0,.18.16.66.94,0-.37-.06-.43,0-.36.52-.29.19-.31.33-.68.56-.72.08-.26.06-.36.11-.42.06-.45-.09-.44.25-.13.22.14.17.32.13.37-.17.33.12.51.25.47.26.21.85-.07.35-.22.15-.49.15-.33.35-.29.67-.36.57-.45.26-.39.08-.49H156v.63l-.29.57-.42.4-.41.17.07.3.72,1.44.32.48-.37.85-.22.31-.61.25-.25.31-.37.69-.17.16-.19.16-.13.18,0,.25.29.69.1.09.57-.06.33-.13.33-.25-.09.52-.65.68.21.35-.13.07-.18.12-.14.17-.06.19-.07.15-.14-.06-.25-.2-.3,0-1.74.66-.44.28-.3.55.22.89-.22,2.41.14,1.07.52.75.7.31,1.62,0-.24.33-.76.54-.16.33-.16.11-1,1.31-1.25,2.07-.22.5,0,.44.1.44,2.18,4.8.45.7.61.65.72.52.81.3.83.09.33-.16.13-.47.21-.13,1-.23.27,0-.16.18-.17.11-.16,0-.16-.07-.17.18-.14.22-.06.29.11.41-.52.3-.27.08-.31,0-.14,0-.28-.15h-.17l-.14.09-.07.14,0,.13,0,.07-.58,0-.55-.26-.46-.41-.34-.46L152,286l-.44-.53-.43,0-.68.55-.39.15-.8.12-.34.19-.21.32,0,.49.26.47.68.9.46,1,.5.86v1.16l-.06.12-.14-.14-.23-.4-.28-.32-2.43-1.59-.21-.25-.18-.32-.39-.31-.72-.36-.79,0-3.59,1.78-.76.18-2.15.06-.3-.19-.31-.47-.39-.36-.41-.14-.37.21-.24-.3-.33-.2-.37-.11-.34,0,.14.38.55.57.19.58h-.64l-2.06.86-.65.54-.44.13-.42.19-.24.17-.14-.05-.15-.09-.16,0-.59,0-.56.17-.5.33-.42.52-.39.82-.26.35-.33.14-.21.16-.76.92,0,.13-.14.36-.16.25-.08-.2-.05-.21-.13-.07-.12.13-.06.36,0,1.31-.09.56-.15.41-1.24.81-.37.64-1.52,1.19-.37.2-.35.1-.36,0-.29.16-2.62,3.06-.27.5-.11.15.07.19,0,.14-.19.29.29.19.26-.13.27-.31.27-.18,1.06.11.42-.11.14-.1.11-.14.13-.13.22-.05.22.07.36.29.41.14.26.32.23,0,.14-.06.13-.11.24-.26-.22-.33v-.41l.18-.35.3-.18,0-.13-.07-.09.67-.77.36-.32.38-.21,1.32,0,.37-.23.32-.19,1.36-.43,1.07.18.52,0,.49-.37.15.35.19,0,.21-.15.22-.24.06.12.06.05.14.06-1.13.81-.12.13,0,.21v.44l.08.21.15.48,0,.48-.22.23-.33.1-.05.26.09.29.36.76,1.45,1.77.31-.08.33-.26.5-.06-.25.32-.77.6-.2.07-.07.06,0,.12-.09.43-.07.08-.34.24-.39.59-.31.77-.06.77.21.48.86,1.19.29.24.52-.09,1-.35h.51v.23l-1,.72L133,314l-.2-.05-.41-.21-.15,0-.12.26,0,.37,0,.38.1.28-.21.44-.21.64-.16.7-.17,1.31-.26.69-.55,1.09-1.1,1.57-2.24,1.94-.35.1-.39,0-.31.08-.27.18-.56.68-.37.34-.37.26-.56.17-.13.18-.09.22-.12.15-.22.09-2.34-.09-.72.35,0,.91-.62-.5h-.26l-.35.39-.46.76-.27.34-.37.25-.63.11-.15.12v.28l.08.34,0,.3-.17.13-.41-.07-.73-.28-.36-.07.13.42-.54.23h-.36l-1-.55-.22-.05-.51,0-.31.07-.21.16,0,.2.23.2V330h-.27l-.06.79-.6.52-.76.29-.59.08-.24.14-.57.59-.35.13-.68.06-.18.17.15.4v.18l-.19.12,0,.09,0,.1.07.14V334l-.13.08-.13.11h.37l1-.21.27-.2.34.22.74.1.34.29.13-.2.26.24.16.38.07.46,0,.47.1.76-.06.3-.3.3-.32.14-.64.13-.27.26-.22.31-.21.16-.27.06h-.4l.37.11.93.72v.19l0,.33h.27l.22-.26-.19-.49.33-.13,2.64.35h.41l1.46-.35.29-.3.06-.34-.26-.25.1-.44-.09-.28-.22-.13h-.31l.23-.15,1.07-.1.54-.22.22-.16v.23l-.72.18-.31.62.11.73.53.55v.19l-.24-.14-.2.05-.46.31-.91.19-.64.37-.25.06-.28,0-.49-.17h-.28l0,.1,0,.23,0,.1-1.45-.21-.12.21.36.42.94.24.27.58-.17.32.45.34,1.24.4.19.16.1,0,.17-.08.16-.29.35-.16.17-.22.15-.27.17-.23.29-.19.29-.07,1.68,0,.33-.34.13-.1.26.23.17.05.34-.86,0-.23v-.12l0,0,.17,0,0-.75.62-.45.79-.22.56-.06,1.42.2.72,0,.65-.36-.28-.28-.15-.29.06-.21.37-.06.16.22.16.15.2,0,.11-.06L126,337l.1-.1.15-.33.12-.09.13.21V337l-.09.28-.11.21-.06.07.18.36.29.22.35.08.34,0-.18.27-.34,0-.78-.1.24.56.46.54.51.4.41.16,1.49-.23.27-.19,1,.58.75.08.22,0,.15-.12.22-.27.09.06,0,.21v.2l-.4.69-.9.22-1,.07-.58.19-.13-.13-.13-.1v-.19H129l-.12-.22-.12.17-.2.37-.08.1-.64.21v.47l.17.39,0,.31-.36.28,0,.22,0,.08.06.11.33,0,1.12.48h.24l.07-.32h.17l.21.15.19.05.19-.12.26-.32.2-.18.2-.09h.18l.47.11.2.15.12,0,.09-.06.17-.29.06-.06.13,0,.15.07.12.09,0,.12.06.16.1-.06.09-.13v-.08h.79l-.14-.27-.2-.29-.14-.29,0-.29.17-.19.25-.16.27-.11,2-.25.25.07.17.18.3.58.17.22.33.22.15.16.23.41.21.5.19.57.13.59,0,0-.05,0,0,.05,0,.14.2.3.37.37.42.22.35-.17.26,0,1.11.93.89,1.22.34.2,4.72.43,1.33-.56.29,0,.36.12L149,348l.13-.64-.23-.65.11-.09.27,0,.13-.09.09-.14.11-.35.06-.13.49-.5.32-.24.29-.1,1.1-.7.1-.2.49-.62.18-.13.1.09.1.21.15.22.24.1,1.6-.12.8-.28,1-.73.9-.21.37-.29.53-.63,1.23-1.48.18-.3.17-.19,1.13-.75.26-.37.23-.41.26-.33.36-.14.38,0,.43-.14.34-.31.08-.57.28.27,0,.34-.15.35-.31.28-.81.29-.32.18-.65.88-1.08,1.14-.11.18-.13.26-.1.28-.05.25-.06.27-.17.13-.19.09-.16.12-1.67,2.87-.38.4-.4.16-.45,0-.37.12-.34.19-.33.27-1.28,1.71-.7.69-.6-.13-.41.43.28.31-.12.28-.26.27-.15.28v.46l-.07.28-.2.09-.36-.11.21.35.05.58v1.12l.07.29.06.16,0,.2,0,.38-.06.22-.32.62-.26-.2.26-.43-.15-.21-.53.37-.74.11-1.25-.06-.68.08-1.35.43-2.16.1-.37-.18-.56-.53-2.37-.55-1.52.05-2.44-.64-.34,0-.6.32-.42.08h-1.36l-.36.06-.71.27-3.45.33-1.44.57v.19l.21.14.14.26,0,.32-.12.32-.14.05-.64-.05.13.26.33.49.06.19,0,.21.23.82.12.29-.2.11-.12.17-.08.18-.11.17-1.27,1.43-.29.21-.38.12-1.1-.12-.19-.07-.39-.3-.21-.06h-1.68l-.09.19,0,.41.07.44.07.23-.26.74-.13.25-.22,1.24.09,2.64-.51,1-.79.6-.35.41-.15.52-.22.37-1.34,1.15-.26-.07-.19.14-.06.32.11.44-.3.49-.21.54-.3.43-.55.18-1.4.1-.48-.1v.19l.1.31-.09.25,0,.27.3.38.62.23.33.21.2.39-.3-.15-.78-.05-.35-.21-.07.1,0,.05-.13.08,0-.34,0-.4-.08-.35-.11-.17-.14,0-.25.29-.14.1h-.38l-.38.3-.18.41-.07.51,0,.6-.17,1.15-.18.4,0,.17-1.32.7H112l-.29,0-.21.15.13.59,0,.37v.35l-.07.15-.26.08-.69.49-2.16,2.28-.71.39h-.67l-.1.11,0,.27-.14.29-.27.44-.39.24-.38-.19-.59-.56h-.41L104,384l-.64.22-1.21.7-.55.21-.15.11-.36.61,0,.1-.07.14,0,.31.1.55h0l.06.08.06.14v.18l-.08.12-.13.06-.18,0,.19.89.72.29.9-.11.78-.25.28-.14.34-.27.2-.4-.11-.51v-.4l.37-.31.49-.17.39,0,.32.13.63.4.77.13,1.13.54.38.27.3.37.54.89.13.28v.21l0,.24.07.36.08.21.09.14.57.63.19.16.17.07.07-.16.22-.69.56-.66.13-.11.23,0,.38.08.17,0,.54-.82.25-.54-.08-.24-.08-.09-.07-.39,0-.13-.09,0-.22,0h-.09l-.27-.16-.16-.05-.22,0,.61-.28.17-.13.07-.21v-.24l0-.22.18-.13.23-.16.12,0h.16l-.28-.33-.12-.08v-.18l.24-.33,0-.33v-.26l.38-.11.24.22.11,1,.23.36.78-1.36.26-.26.8-.27.33-.18.35-.43.36-.15.94.14.19-.2,0-.16.23-.55v-.13l-.11-.2,0-.18.07-.19.16-.22.17-.18.14-.11v-.23l-.15-.38.21-.24.39-.13.38,0,.11,0,.1-.1.11-.07h.13l.26.81h.11l.1-.06.06-.09v-.05l3.11-.18.74-.29,1.37-.86.87-.1,1.61.42.33.2.17.43.2.36.41,0v-.18l-.11-.21,0-.2.12-.15.22-.08v-.19h-.53l.14-.22-.37,0-.16,0v-.2l.66-.18-.43-.32-1.07.17-.32-.46.91.08.25-.08.17-.23.07-.31-.08-.3-.28-.19v-.18h.23l.19-.11.15-.2.08-.32.2.17h.2l.37-.18-.2.42-.26.4-.14.41.14.49.16.31.08.24.11.18.24.17.21.05.69-.05-.25.55.19.46.42.3.42.12-.07.28,0,.1.3.27.19.11.22.05.15-.07.25-.29.11-.07.19-.06.48-.27.18-.05.2.1,1.24,1.14,1.1,1.36.7.64.28-.31.3,0,.34.17.42.1.33,0,.76-.23.28-.14-.14-.74.11-.7.19-.6.1-.51.2-.28.42-.11.41-.24.13-.67.3.26.3.1.23-.16.12-.74.1-.16.14-.07.18,0v-.1l.19-.52v-.2l-.84,0-.33-.17-.13-.49.13-.42.33-.25.42-.1.42,0-.33-1.24,0-.58.21-.81.25-.6.27-.51.31-.41L144,372l-.16-.4-.25-1-.24-.27,0-.14,0-.14.07-.06.1,0,.06.07.05.06,0,0,.08.12.24.71.24.44.25.25.32.1.42,0,1.37-.61.29-.4.17-.39.22-.31.77-.19.64-.29.36-.06.21.05.36.16.2,0,.18-.09.32-.26.09-.06.43-.36.22-.07.72.21.45-.06.67-.44,1.42-.33h.42l3.25,1.22,4,3.05.44.74v1.11h.12l.26-.41.2-.47-.05-.38-.47-.16-.17-.28.1-.63.24-.64.22-.29.71-.23.4-.06.65.41,3.5.39,1.42.67.32.07,1.54,0,.35-.16,0-.45.65-.81-.1,0-.28-.18.13-.5L172,370l-.28-.06h-.31l-.34-.08-.23-.23-.4-.73-.21.18-.21.14-.22.08-.25,0,.66-1.07.17-.15.09.09.16.39.07.11.15,0,.49,0,.73.2.06.16,0,.31.09.2.2-.15.29-.34.33-.27.36-.19.38-.12.42,0,1.19.22.35-.08.73-.39.41-.12h.43l1.29.24.41.27.36.11h0l0-.12.61-1.13.62.11h.09l.21-.17.49-.18.86-.16v-.18l-.13-.12-.13-.11.27-.09,1.22-.11.42-.15L184,366l-.17-.41-1.47-1.65-.46-.56-.24,0-.35-.23-.19-.09v-.18l2.41,1.35.71.87.25.13.63.22.44.39.61.32.13.28.13.19.3.19.35.14h.25l.24-.23.07-.32,0-.58-.11-.18-.67-.56.29-.09,1.18-.09.34.18-.12.4-.34.51-.18.53.38.43.5-.06.26-.57.17-.71.24-.53.36-.11h.59l.59.11.39.21-.19.4.13,0,.23-.13.1-.11.22.12.36.37.19.15v.18l-.54.22-.26.2-.1.3.14.18,1.72,1.11.43.14.36-.21.09-.3-.13-.56.11-.27.17-.07.16.1.16.14.16.06,3.1-1h3.24l2.41-.87.7.28.5-.28.62.06,3.93,1.44.8.06.35.11.33.33.18.1h.66l.21,0,.86.32.37.06H214l.7-1,.65-.43,0-.11.19-.32.21-.27h.09l.71-.32,4.09-.87.76-.34,1.85-1.82.75-.25,2.71.9.65-.26-.2-1.16,0-.78.19-.35,1-1.41.73-.68.39-.26.37-.1,1.24,0,.37-.15.14-.15.17-.21.18-.19.22-.08.42,0,.21,0,.52-.4,1.26-.43.51-.62.39-1,.16-1.15-.17-1.19-.31-.8-.14-.51-.05-.65.1-.1h.67l.12-.1.11-.14L236,350l.07-.19.17-1-.46-.27-6.1.56-2.34.73-4-.46-.21-.21-.26-.5-.21-.55,0-.38-.41,0-.09.29.09.42.15.35-.78-.21h-1.62l-.18-.07-.14-.18-.13-.21-.14-.17.34-.22.69-.17.6-.58h.29l.68.15.39-.05.19-.16,0-.3-.24-.43L222,346l-3-.44-1.23.33-.09.1-.06.22-.09.2-.15.1-1.22.21.28-.16.28-.1.27-.16.25-.3.12-.34.05-.3.11-.23,1.3-.34.52,0,.31.29.25-.25.24-.06h.26l.28-.09.36-.35,0,0,.12,0h.26l.52,0,1.5.24.85-.27,1.08-.68,1-.87.52-.87-.07-.14-.18-.11-.51,0,.29-.22.15-.14.06-.17v-.71l.07-.25.19-.17-.15-.37-.07-.24,0-.24,0,0,.08-.23,0-.29,0-.26-.29-.3-.33.06-.55.45-.57.24-1.21.27-.54.53L223,339l-.33-.16-.34-.05-.29-.14.42-.25.87-.35.46,0,.19,0,.42.18h.23l.19-.1.3-.26.23-.06.1-.16.08-.37.06-.36v-.16l.13-.08.59-.55.7-.34.28-.33.05-.57.17.4.62.84.3.63.17.15.36.06,1.32-.21.61-.25,1-.66,1.08-1,.23-.49,0-.64-.09,0-.14.31-.2.19-.68-.1-.3-.13-.24-.18,1.49-1.54.07-.58-.38.23-3.15-.2-.49-.23.48-.08.92-.31.41,0,.53.35.24.06.23,0,.39-.13.23,0,.38.1.07-.14v-.49l-.08-.14-.2-.1-.87-.2-.39-.29-.68-.64v-.21l.52.11.94.75.55.19L234,331.9l.21-.08.22-.34,1.32-1.46.46-.71.12-.11.16-.2,0-.39.1-.25.28.21.32-.36,1.48-.64.1-.16,0-.42.27-.83.07-.56.34-1.06.1-.6,0-1.38,0-.79.2-.34.21-.23.6-1.1.83-2.21.05-.29,0-.31.48-1.6.23-.29.08-.28Zm-53.52,55.23-.16,0-.06,0v-.07l0-.26v-.07l-.22-.18-.2,0h-.47l-2.86-1.17-.43,0-.47.33-.65.8-.44.36-.46.06,0-.1.05-.21,0-.1-1.65.78-.74.64-.46.83.34-.2.31-.13.71-.09.21.09.63.45.13.18,2.46,1.75.69.2,2.09-.62.07-.14,0-.33,0-.64.05-.16.11-.14.53-.47.3-.14.7-.21.07-.08,0-.07,0-.05h.09v-.23l-.39-.61ZM101.8,259.75l.06.26.15,0,.16-.08.13-.09.13-.66.09,0,.21.06.09,0,.63-.65.5-.74.23-.93-.19-1.23-.55-.6-.8.23-.87.52-.77.29.21-.34.69-.56.15-.31.52-1.69-.14-.2.1-.21,0-.09,0-.14-.24-.08-.11-.28v-.38l.09-.39-.57-.32.12-.15.42-.08.3-.11-.21-.19-.7-.05-.14-.11-.17-.16-.21-.14-.26,0,.18-.19.16-.28,0-.32-.14-.32v-.22l.57,0,.51.29,1.32,1.26.32.55.2.75.07,1-.09.49-.44.56-.12.38,0,.36.13.36.2.29.23.12.19.63.18.46.22.23.26-.05.23-.46.28-.15-.27-.36.1-.26.25-.22.18-.25.07-.53-.13-.54.12-.4.36-.56.1-.2v-.17l-.06-.13,0-.18.13-.31-.12-.08-.6-.92-.08-.45-.11-1.29-.13-.26-.32-.18-.22-.48-.3-1.14,0-.33v-.28l-.06-.18-.2-.08-.18-.1-.24-.46-.1-.11-2.27.38-.42,0-.29-.23-.3-.12-.4.19-.65.49-.67.33-.18.21-.42.68-.21.2-.1.21-.14.15-.24,0,0-.16,0-.29-.07-.28-.24-.16.7-1.28.36-.49.49-.45.51-.28,1.13-.33.56-.28.42-.48.27-.72,0-.91-.23-1-.35-.53-.59-.52-.56-.16-.3.56,1.2,1.29.35.7h-.12l-.45-.68-.56-.23-.48-.3-.2-.9,0-.48-.14-.4-.17-.33-.17-.25-.15-.17-.3-.26L98,237.9l-.11-.24-.13-.53-.08-.22-.38-.57-.45-.42-.51-.26-.55-.1,0-.22.34-1.22,0-.59-.14-.31-.24-.21-.29-.13-.25,0-.35,0-.36-.05-.14-.29.28-.71.12-.55.07-1.84-.19-.35-.7-.78-.15-.09-.17-.25-.37-.17-.74-.14-.37.07-.72.31-.42.07-.3-.08L88.83,227l-.48-.12-.71.47-.45-.14-.68-.41-.42,0-.41.21-.36.33-.29.4-.32.24-1.31.1-2.15,1-2.45.12-.37-.15-.81-.56-.31,0-.11.46-.12,1.5-.22.31-.22.24-.22.54-.15.6v.42l-.27.2-.42.54-.21.17-.65.09-.65-.09-.83-.44-.33,0-.87.26h-.29l.18-.62-.16,0-.22.1-.17.21-.14.23-.15.17-1.21.19-.23.18-.19.21-.53.84.08.29,0,.05-.1,0-.08.23.11.84,0,.27-.16.26-.38.16-.16.2-.07.39.09.83v.34l-.2.71-.3.58-1.37,1.71-.12.44,0,.81.07.24.1.12v.07l-.25.1h-.2l-.35-.19-.57.17-.65-.18-.34.2-.65.65-.65.37-.64.05-.63-.33-.54-.47-.25,0-.65.66-.94.47.31.26.12.06-.15.49.16.34.31.2.33.09.16.11.19.41.15.16h.15l.3-.22.14-.05.26.15.6.55.3.12.32-.16.29-.21.2.05,0,.65-.78.26L60.56,250l-.72.28-.75,0-1.43-.34-.4.45-.38.57-.23.48-.1.13-.22.21-.46.27-1,.3-.45.25.24.22.06.25,0,.26.18.27.45.5.8,1.14.45.46.47.25h.55l.4,1,.25.47.32.36.32.13.74.11.27.21.13.51.07,1.43.26.5.36.23,1,.14,1.12-.08.34.07,1.36,1,.13.2,0,.29.06.27.22.16,2,.48.4-.08.78-.62.47,0-.21.28.07,0,.19,0,.15,0,.14.28,0,.14.08,0,.28-.06.92.31.31,0-.43-.91v-.21l.14-.17.57-.34.07.08-.06.23,0,.29v.37l0,.29.07.13.25-.14.18-.19.14-.28,0-.33-.09-.32.37-.19,0-.17-.18-.15-.09-.12.11-.33.12-.21.15-.16.22-.16,1-.28.41-.27-.12-.53.26-.36-.67-.57.11-.45-.63-.31-.05-.35.09,0,.14,0,.11-.13h0l.15-.3h0l0,0L73,257l0-.2,0-.15.13-.07.33.06h.15l.63-.48.91-1.45.56-.55.59-.05.64.33,1.17,1,.13.22.17.55.16.09.22,0,.12.12.4,1.11,0,.47-.15.33-.33.18.67.34.17.2.09.27.06.31.11.33.32.51.36.43.41.35.41.26.22,0,.16-.17.14-.2.2-.13.23,0,.2.12.39.34.43.51.11.57-.18.59-.42.55.2.37,0,.36-.29.76.29.24.51.61.26.15.11-.06.2-.31.1-.11.15,0,.29.13.14,0,1.62-.6.52,0v.06l.08.13.11.15.12.08h.14l.48-.18.45-.07.12-.11.08-.27,0-.27,0-.24,0-.21.25-.43.16,0,.15.22.22.16.25,0,.27-.14.28,0,.29.24.12-.22.4.17.57,0,.5.18.22.59.24,0,1.45.54-.15,0-.38.18v.2l.33.24.3.06.73-.07.26-.11.8-.62.58-.62.79-.4.35-.44.2-.51.16-.64.11-.67.06-.61L98,260.4l.12-.39.37-.14.37-.07.82-.3.8-.09,1.1.1Zm6.91,78.66.17-.05,0-.08h.15l.19-.13-.18-.09-.24-.15-.32.09-.09.09.09.17.11,0,.08,0,0,.05Zm82.11,27.95-.1-.1v-.18l.17-.13.06-.16,0-.18-.18-.17h-.24l-.49.86-.42.17v.2l1.55.23v-.23l-.13-.09Zm-72.68-59.58,0,.29.12-.21h.07l.12-.05.11-.28,0-.12-.23,0Zm4.24-16.22-.07-.42-.18-.37-.25-.34-.29-.28-.13-.13-.34.05h-.22l-.22-.13-.51.46v.21l.33.55.12.07.55,0,.17,0,.18.22.38.73.39.34.19.09.16-.09.1-.33-.11-.25-.16-.19ZM104.26,188.39l.34-.4.3-.59-.19.2-.26.06-.6,0-.3.39-.11.22-.09.32.5,0ZM119.92,341l0,.12.07.14.05,0,.1,0,.11.14.18,0,.07-.17-.23-.16Zm8.28-53.71,0-.38-.09-.37-.19-.18-.72-.41h-.35l-1.31-.23-.24,0-2.42.82-.33.25.19.47,0,.46-.09,1v.7l0,.47-.11.32v.24l.34.42.62,1.24.39.36.06.24,0,.23v.17l0,.26v.09l0,0,.15,0,.06,0,.62.55,0,.09.28-.11.41-.6.29-.14.2.13-.1.3-.22.29-.14.13,0,.12,0,.27v.29l0,.18.11,0,.16-.06.11-.1v-.08l.49.22.23.05.2-.07,1.21-.72.29-.38.66-.47.09,0,.05,0,0-.26v-.35l0-.08.07-.1.36-.41.45-.35.48-.24.46-.1.45-.25.66-1.24.39-.42-.23-.18-.26-.06-.56,0-.08-.05-.24-.16-.13,0-.11.07-.16.31-.11.07-.24,0-.43.14-.25,0-.23-.05-.08-.17,0-.28-.1-.36-.3-.36,0-.07-.06-.08v-.19l0-.21,0-.17h-.1l-.27-.15-.24-.18,0-.09ZM108,333.8h-.11l-.16.13.07.18-.07.1v.24l.12.05v.08h0l.09,0,.07-.18v-.27l.06-.22Zm12.57,21.75.13-.15V355l0-.19,0-.13-.07-.22-.1.06-.07.38,0,.41Zm-6.46-146.09,0-.2-.2-1-.13-.46-.18-.44-.22-.45-.17-.15-.17-.07-.14-.16-.1-.76-.13-.1-.17,0-.17-.11-.57-.64-.59-.51-.61.33,0,.53.23.58.15.51.12.26.66.44,0,.44.21.94.2.56,1.24,1.16.22.6.18.28.24,0,.13-.22,0-.28-.15-.26-.2-.14.2-.45ZM74.47,128.27l.11.15-.1.43.15.18.55,1.17.15,0,.82-.6-.09.26-.11.22-.15.15-.17.12h.52v.23l-.21-.06-.2,0-.15.17-.08.33h.55l1.78-.49-1.14.65-.62.23-.57.09,0,.11v.07l.06.08V132h-.38l-.25.21-.22.3-.3.25.89.69h.16l.24-.2.15.57.5.19,1.09-.06.29.12.49.52.26.12h1.1V135l-.15,0-.36.23.06.12.06.1.15.17-.57-.14-.56.13-1,.57v.24l.92.71-.91,0-.43.14-.23.39-1.55,1.46-.07-.45-.11-.29-.15-.16-.24,0-.3.09,0,.22.13.27.09.26.2.15,1.15,1.45.18.11,1,1.14.14.06.35-.37,1.15-.8.39-.41-.08-.06-.1-.11-.08-.07.49-.41.21-.23.21-.34-.13-.14-.16-.25-.1-.08.13-.26.88.66.42.07v-.22h-.14v-.25l.34,0,.33-.07.27-.17.09-.28-.07-.2-.44-.81L80.9,137l-.4-.17-.22-.15.16-.25.09-.23.1-.18.18-.11.66.38,1.54.39-.07-.75-.06-.24-.08-.09-.15-.05-.16-.1-.13-.23.13,0,.1-.08.08-.09.1-.07-.18-.25-.19-.33-.22-.29-.26-.13-.21-.21-.4-1.07-.24-.39.37-.24.53-.51.44-.57.09-.4v-.23h1.82v.23l-.71,0-.69.23-.54.52-.28.93,0,.51.15.48.52,1.06.11.43.1.19.19.17.6.32.13-.23-.14-.24-.18-.43-.11-.4.1-.19.18.08.1.19.17.49.23.38.29.27.35.07.43-.22V135l-.09-.08-.09-.1-.08-.06v-.27l.34.09.25.14.23,0,.34-.26.16-.24.31-.56.18-.15v-.24l-.27-.36-.67-.21-.3-.29-.4-.18-.16-.15.11-.27h.1l.4.17,1.77.31.45-.12.3-.31.26-.4.35-.41-.24,0-.23,0-.23-.09-.2-.15.18,0,.17-.08.15-.14.14-.21-.18-.2-.07-.06,0-.47-.1-.45-.19-.36-.25-.18-.26,0L87,129l-2.46.59-.72,0v-.24l.31,0,1-.26.52-.49.17,0,.29.2h.18l.28-.18.63-.79,1-.22.33-.27-.08-.28v-.17l.06-.15.16-.16-.2-.4-.44-1.31h.29l.57.37.31.11.84-.11.32.11.56.39.26,0,.34-.18.07-.1.18-.35.13-.16.17-.12.5-.25-.09-.36,0-.13.07-.12.1-.21.08-.18h-.11v-.22l.17-.27-.19,0-.35.12-.29.17-.91,1-.53.23-.75,0-.7-.22-.35-.57.53,0,.21-.07.17-.18,0-.27-.05-.31,0-.27.55-.22.18-.51.23-.11.24,0,.14-.15,0-.24-.09-.32.31-.36.84-.64.41-.2v-.27h-.28l-.26-.09-.21-.18-.16-.23.44-1.49.14-.21.34-.17-.06-.38-.34-.58-.09-.57-.24-.7-.33-.64-.38-.43-.46,0-.55.54L89,115.83l-3.36,2.61-.47.64-.17.15-1.19.65-.51.15h-.64l-.16.11-.12.18-.14.09-.23-.14-.4.58L80,122.23h.2l.12.08.09.16.1.26h-.13l-.09.08-.07.09-.1.07.08.21.09.18.22.32,0,.1.08.32,0,.09.12,0,.28-.07.11,0,.08.21.11.55.08.22.16.19.47.3-.52.75-.22-.52-.46-.45-.48-.24-.32.09-.19.16-.84.21-.06.11,0,.25-.07.26-.18.13.1.35.29.62.13.23,0,.48v.2l0,.32-.25-.36-.29-.67-.19-.75,0-.55-.23-.28-.4-.6-.12-.51.56,0v-.24l-1-.48-.14.12-.15,0-.74-.4-.28-.22-.36.44-.11.24,0,.44.08.43.2.2.49.23-.39.17-1.41.09v.23l.1,0,.13.15.14.06-.09.19,0,.13-.08.08-.16.07v.35l-.21.31-.06.46.09.19Zm.64,8.4.26,0,.2-.11.13-.23.07-.4.67.44.22-.14v-.76l-.35-.25-.42.2-.78.77,0,.13h0v.08Zm-7.63,10.91.23.14.15,0,.13-.07.13-.16.13-.23.58.15,1.14.75.62.06-.36.25h-.16l.15.17.09.19.06.2.22.41.07.08.18.13.34.08.66-.06.3.24.31-.25.4-.07.78.06L74,149l.07-.22L74,148.5l-.12-.12-.33-.12-.38-.06-1.11.32H70.71v-.26l.8-.65.25-.07.09.11.16.46.13.15h.12l.27-.18.14,0,1.11-.1.45-.33.38-.77L74,147h-.31l-.13-.32-.06-.48-.17-.16-.54,0v-.26l.11-.22,0-.15-.13-.07-.22,0v-.27h.84l.43.43.21.08.13.12.14.28.19.24.27.06.12-.15.32-.6.2-.19-.17-.44-.35-.2h-.42l-.28,0-.25-.18-.57.3-.31-.2.34-.22.11-.3-.07-.33-.24-.33-.51.09-.89.67-.4.18.26.21.13,0v.24l-.4,0-1-.44.18-.45.09-.15.11-.12v-.22l-.44.44-.59.87-.56.57-.34-.46.37-.22.14,0v-.24l-1.28.23-.41-.23-.31.58-.25.7-.3.6-.43.31v.24l.86.63Zm5.92-5.07.34-.39-.18-.38-.36.09-.8.88.45,0Zm18.09,43.3,1-.06-.2-.4-.57-.47-.28-.3-.27,0-.23.12-.21.23-.2.33.5.45Zm-12-.58.42-.09.37-.32,0-.58,1.14-.14.26-.43-.23-.6-.48,0-1,.37-.43.1-.7.46-.42.16-1.28.21-.41.23.19.57.11.53.17.4,1.18.55.39,0-.1-.61.34-.59ZM79,124.32l.24.14v.22H79v.24h1.55l-.08-.31-.12-.27-.15-.21L80,124l-.2.12-.61-.7-.36-.16-.11.37.07.4ZM67.6,169.52l.3,0,.3-.14.15-.22-.1-.33.14-.07.15-.12.15-.16.15-.22.16-.13.55,0-.16-.16-.08-.27,0-.29-.09-.23L69,167l-.61-.32.12-.14.27-.59-.08-.11-.08-.07-.1,0-.13,0-.12-.18-.06,0h-.09l-.15.93-.35.3-.46.1-.46.34.2.25,0,.39-.09.36-.22.16-.32.15-.21.34v.33l.29.15ZM89.19,391.14l-.06,0L89,391H88.9l0,.23.12.34.17.09.11-.22,0-.21ZM71.39,159.47l.37-.18.13-.27.2-.72.11-.32.22-.27.23-.12.17-.19.1-.51-.31,0-.21-.2-.18-.29L72,156.2l-.29-.09h-.59l-.28-.14-.24-.43-.08-.07-.45-.22-.15,0-.17,0-.14-.07-.06-.3,0-.15-.1-.18-.13-.15-.11-.11.42-.24.38.37.37.56.79.47.34.35.41.19.52-.27v-.24l-.42-.07-.59-.56-.42-.09v-.23l.37.13h.13l.16-.12-1.69-1.2h-.19l-.86.43-.37.28.5,1.58.22,1.06-.13.48-.25.07-.09.21,0,.3-.09.37-.25.66-.15.25-.24.28.25.07.21.19.32.46v.23l-.11.41.07.56.49,1.83.16.37.55.65.59-.35,1.56.32.44-.46v-.22l-.38,0-.23-.29-.22-.37-.33-.27-.29,0-.68.09-.33-.06v-.23l.73,0,.36.06.33.21.21-.41,0-.69-.09-.74-.16-.53-.34-.34-1.21-.38v-.21ZM88.81,391.21l-.09-.1-.08,0,0,.15v.11l0,.08v.14h.1l.09-.18Zm1,.64-.16.23,0,.41.22.12.19-.13.06-.25L90,392Zm-18.25-241v0l0-.15-.21,0-.19,0-.15-.09-.11-.16-.22.2-.23.05-.23-.08-.22-.17-.45,0-.37.33-.25.55-.09.65.21.41,1.47.91.5.12,1.64-.49,0-.24-.15-.24-.27-.11h-.44l-.16-.12-.1-.35.36,0,.42-.39.26.15.12-.21-.52-.42-.13-.06L72,151l-.16.08-.15,0-.16-.14.07-.06ZM90.25,391h-.17L90,390.9l-.09-.13-.06,0-.13.12.06.1.28.22h.22l.17-.18-.07-.07Zm-44-252.43-.3-.24.2.73.37.28.42-.1.31-.4-.32-.17Z" transform="translate(-17.53 -26.75)"/></svg>